HIERARCHY
ROOT joint_Root
{
	OFFSET 0.0 0.0 0.0
	CHANNELS 6 Xposition Yposition Zposition Zrotation Xrotation Yrotation 
	JOINT Hips
	{
		OFFSET 4.5925 91.4895 -427.239
		CHANNELS 6 Xposition Yposition Zposition Zrotation Xrotation Yrotation 
		JOINT Spine
		{
			OFFSET 15.7357 0.0 0.0
			CHANNELS 6 Xposition Yposition Zposition Zrotation Xrotation Yrotation 
			JOINT Chest
			{
				OFFSET 8.98455 -0.406207 0.0
				CHANNELS 6 Xposition Yposition Zposition Zrotation Xrotation Yrotation 
				JOINT Neck
				{
					OFFSET 16.3773 0.0 0.0
					CHANNELS 6 Xposition Yposition Zposition Zrotation Xrotation Yrotation 
					JOINT Head
					{
						OFFSET 6.45672 0.0 0.0
						CHANNELS 6 Xposition Yposition Zposition Zrotation Xrotation Yrotation 
						End Site
						{
							OFFSET 0.0 0.0 0.0
						}
					}
				}
				JOINT Shoulder_L
				{
					OFFSET 12.9942 -0.242716 4.98039
					CHANNELS 6 Xposition Yposition Zposition Zrotation Xrotation Yrotation 
					JOINT UpperArm_L
					{
						OFFSET 5.34809 0.0 0.0
						CHANNELS 6 Xposition Yposition Zposition Zrotation Xrotation Yrotation 
						JOINT LowerArm_L
						{
							OFFSET 24.3286 1.87007e-05 0.0
							CHANNELS 6 Xposition Yposition Zposition Zrotation Xrotation Yrotation 
							JOINT Hand_L
							{
								OFFSET 22.2916 0.0 0.0
								CHANNELS 6 Xposition Yposition Zposition Zrotation Xrotation Yrotation 
								End Site
								{
									OFFSET 0.0 0.0 0.0
								}
							}
						}
					}
				}
				JOINT Shoulder_R
				{
					OFFSET 12.9945 -0.242716 -4.98039
					CHANNELS 6 Xposition Yposition Zposition Zrotation Xrotation Yrotation 
					JOINT UpperArm_R
					{
						OFFSET -5.34813 0.0 0.0
						CHANNELS 6 Xposition Yposition Zposition Zrotation Xrotation Yrotation 
						JOINT LowerArm_R
						{
							OFFSET -24.3289 0.000322201 0.0
							CHANNELS 6 Xposition Yposition Zposition Zrotation Xrotation Yrotation 
							JOINT Hand_R
							{
								OFFSET -22.2915 -0.000108084 0.0
								CHANNELS 6 Xposition Yposition Zposition Zrotation Xrotation Yrotation 
								End Site
								{
									OFFSET 0.0 0.0 0.0
								}
							}
						}
					}
				}
			}
		}
		JOINT UpperLeg_L
		{
			OFFSET -2.19248 -6.46944 0.0
			CHANNELS 6 Xposition Yposition Zposition Zrotation Xrotation Yrotation 
			JOINT LowerLeg_L
			{
				OFFSET 39.0811 0.0 -1.23785e-05
				CHANNELS 6 Xposition Yposition Zposition Zrotation Xrotation Yrotation 
				JOINT Foot_L
				{
					OFFSET 40.9854 0.0 -1.26872e-05
					CHANNELS 6 Xposition Yposition Zposition Zrotation Xrotation Yrotation 
					JOINT Toes_L
					{
						OFFSET 11.7543 0.0 0.0
						CHANNELS 6 Xposition Yposition Zposition Zrotation Xrotation Yrotation 
						End Site
						{
							OFFSET 0.0 0.0 0.0
						}
					}
				}
			}
		}
		JOINT UpperLeg_R
		{
			OFFSET -2.19251 6.46944 0.0
			CHANNELS 6 Xposition Yposition Zposition Zrotation Xrotation Yrotation 
			JOINT LowerLeg_R
			{
				OFFSET -39.0811 -0.00228153 -0.0401928
				CHANNELS 6 Xposition Yposition Zposition Zrotation Xrotation Yrotation 
				JOINT Foot_R
				{
					OFFSET -40.9854 0.0 0.0
					CHANNELS 6 Xposition Yposition Zposition Zrotation Xrotation Yrotation 
					JOINT Toes_R
					{
						OFFSET -11.7543 0.0 0.0
						CHANNELS 6 Xposition Yposition Zposition Zrotation Xrotation Yrotation 
						End Site
						{
							OFFSET 0.0 0.0 0.0
						}
					}
				}
			}
		}
	}
}
MOTION
Frames:	4
Frame Time:	0.0333333
0.000000 0.000000 0.000000 0.000000 0.000000 -0.000000 -9.783540 84.791600 -44.446400 88.442000 3.923770 -3.547060 15.735700 0.000005 -0.000001 91.259000 83.596000 -89.535500 8.984550 -0.406207 -0.000000 5.037660 0.239862 3.432430 16.377300 -0.000001 -0.000001 -4.314450 -6.664540 4.576100 6.456720 -0.000001 -0.000000 -8.288770 -7.022330 8.447580 12.994200 -0.242716 4.980390 -90.116700 0.367271 -72.361900 5.348090 -0.000007 -0.000001 -71.220700 31.968900 -1.690770 24.328600 0.000019 0.000005 33.486300 -4.522210 -96.800400 22.291600 -0.000001 0.000005 6.454870 5.453330 -4.760310 12.994500 -0.242716 -4.980390 87.758400 9.074430 -76.063300 -5.348130 -0.000001 -0.000004 -51.294800 40.050900 -23.855500 -24.328900 0.000322 -0.000009 -1.157460 0.160519 -97.881800 -22.291500 -0.000108 -0.000004 15.605900 5.519390 -7.333860 -2.192480 -6.469440 -0.000000 178.113000 -2.893280 -28.522600 39.081100 -0.000007 -0.000012 -0.205149 0.003054 89.149600 40.985400 -0.000006 -0.000013 8.418610 -7.806920 -50.245900 11.754300 -0.000000 0.000003 -0.004857 -0.060087 -19.021500 -2.192510 6.469440 -0.000001 -178.207000 10.478900 168.437000 -39.081100 -0.002282 -0.040193 0.076638 -0.062079 49.772800 -40.985400 0.000008 0.000006 11.166700 3.516510 -83.746900 -11.754300 -0.000006 -0.000006 -1.403570 -1.584190 -21.597500
0.000000 0.000000 0.000000 0.000000 0.000000 -0.000000 -8.772290 87.512200 -37.569700 89.917000 2.268220 -5.316640 15.735700 0.000005 -0.000001 105.000000 83.961500 -104.525000 8.984550 -0.406207 -0.000000 3.891530 3.105250 0.842221 16.377300 -0.000001 -0.000001 -4.668230 -6.353470 4.591280 6.456720 -0.000001 -0.000000 -8.506860 -8.688180 8.968890 12.994200 -0.242716 4.980390 -89.832700 -0.481546 -70.855900 5.348090 -0.000007 -0.000001 -66.367200 34.405300 -0.462387 24.328600 0.000019 0.000005 27.936200 -5.604140 -100.436000 22.291600 -0.000001 0.000005 5.777900 5.449230 -4.613950 12.994500 -0.242716 -4.980390 88.311100 7.709200 -77.604400 -5.348130 -0.000001 -0.000004 -56.020300 40.170000 -22.067200 -24.328900 0.000322 -0.000009 -3.043550 0.452583 -98.444300 -22.291500 -0.000108 -0.000004 16.218900 5.526160 -7.627160 -2.192480 -6.469440 -0.000000 175.839000 -2.473350 -32.674800 39.081100 -0.000007 -0.000012 -0.132223 0.027132 78.406900 40.985400 -0.000006 -0.000013 9.317440 -12.236300 -54.018500 11.754300 -0.000000 0.000003 -0.005398 -0.065271 -19.232800 -2.192510 6.469440 -0.000001 178.770000 10.272100 173.821000 -39.081100 -0.002282 -0.040193 0.060709 -0.062386 42.635400 -40.985400 0.000008 0.000006 11.072400 6.789820 -74.446900 -11.754300 -0.000006 -0.000006 -0.055395 -0.316503 -29.627800
0.000000 0.000000 0.000000 0.000000 0.000000 -0.000000 -7.826960 90.328600 -30.715700 91.065600 1.280090 -7.533300 15.735700 0.000005 -0.000001 115.967000 84.297800 -116.638000 8.984550 -0.406207 -0.000000 2.525770 5.020130 -1.451720 16.377300 -0.000001 -0.000001 -5.285690 -6.141630 4.034570 6.456720 -0.000001 -0.000000 -8.884290 -9.571250 8.436830 12.994200 -0.242716 4.980390 -89.336400 -1.781140 -69.567500 5.348090 -0.000007 -0.000001 -63.070600 35.372900 1.301020 24.328600 0.000019 0.000005 26.271600 -6.789750 -103.470000 22.291600 -0.000001 0.000005 4.096560 5.444870 -4.455310 12.994500 -0.242716 -4.980390 88.715500 6.398620 -78.625200 -5.348130 -0.000001 -0.000004 -59.627100 41.002100 -19.307300 -24.328900 0.000322 -0.000009 -3.677600 0.587252 -99.057900 -22.291500 -0.000108 -0.000004 15.908500 5.525230 -7.586810 -2.192480 -6.469440 -0.000000 175.138000 -1.262020 -34.287400 39.081100 -0.000007 -0.000012 -0.045602 0.024177 62.073700 40.985400 -0.000006 -0.000013 8.669270 -11.842200 -57.052500 11.754300 -0.000000 0.000003 -0.005146 -0.062881 -19.135300 -2.192510 6.469440 -0.000001 175.982000 12.494800 177.056000 -39.081100 -0.002282 -0.040193 0.059876 -0.076138 36.621500 -40.985400 0.000008 0.000006 11.025200 11.666300 -61.284500 -11.754300 -0.000006 -0.000006 -0.146655 -0.548090 -39.732500
0.000000 0.000000 0.000000 0.000000 0.000000 -0.000000 -7.219530 92.039500 -23.569700 90.547200 1.032810 -7.933400 15.735700 0.000005 -0.000001 120.330000 84.139600 -121.514000 8.984550 -0.406207 -0.000000 2.425720 5.969350 -2.494230 16.377300 -0.000001 -0.000001 -5.892140 -5.889390 3.157140 6.456720 -0.000001 -0.000000 -9.639550 -9.837020 7.360810 12.994200 -0.242716 4.980390 -88.696500 -3.315560 -68.525900 5.348090 -0.000007 -0.000001 -61.372000 34.582300 3.440480 24.328600 0.000019 0.000005 24.319700 -7.376090 -105.860000 22.291600 -0.000001 0.000005 4.155040 5.429860 -3.935730 12.994500 -0.242716 -4.980390 88.998300 5.214290 -79.110200 -5.348130 -0.000001 -0.000004 -62.004800 42.339600 -17.017100 -24.328900 0.000322 -0.000009 -2.052060 0.342244 -99.461000 -22.291500 -0.000108 -0.000004 15.071500 5.517230 -7.243810 -2.192480 -6.469440 -0.000000 177.657000 0.827942 -32.060700 39.081100 -0.000007 -0.000012 0.020543 -0.021272 43.996900 40.985400 -0.000006 -0.000013 7.010200 -5.016500 -60.987500 11.754300 -0.000000 0.000003 -0.005559 -0.066785 -19.294500 -2.192510 6.469440 -0.000001 174.212000 16.185200 -179.635000 -39.081100 -0.002282 -0.040193 0.103271 -0.149039 33.854400 -40.985400 0.000008 0.000006 8.392130 16.925100 -48.942300 -11.754300 -0.000006 -0.000006 -0.143592 -0.541926 -39.453400
